# xmcd
# Track frame offsets:
# 150
# 23781
# 42842
# 58575
# 69037
# 83806
# 100572
# 117101
# 130894
# 145325
# 154191
# 174658
# 189807
# 199753
# 215103
# 230580
# 248016
# 264419
# 282368
#
# Disc length: 3979 seconds
# Revision: 0
# Processed by: cddbd v1.5.1PL0 Copyright (c) Steve Scherf et al.
# Submitted via: VisiTrax 2.9.10.228 - For more info visit www.synapsa.com
#
DISCID=050f8913
DTITLE=Steve Earle - Transcendental Blues
DYEAR=1900
DGENRE=Misc
TTITLE0=Cooperhead Road (Live)
TTITLE1=Trancendental Blues
TTITLE2=Everyone's in Love with You
TTITLE3=Another Town
TTITLE4=I Can Wait
TTITLE5=The Boy Who Never Cried
TTITLE6=Steve's Last Ramble
TTITLE7=The Galway Girl
TTITLE8=Lonelier Than This
TTITLE9=Wherever I Go
TTITLE10=When I Fall
TTITLE11=I Don't Want to Lose You Yet
TTITLE12=Halo 'Round the Moon
TTITLE13=Until the Day I Die
TTITLE14=All My Life
TTITLE15=Over Yonder (Jonathan's Song)
TTITLE16=The Galway Girl (Live)
TTITLE17=Steves Last Ramble (Live)
TTITLE18=I Feel Alright (Live)
EXTD=
EXTT0=
EXTT1=
EXTT2=
EXTT3=
EXTT4=
EXTT5=
EXTT6=
EXTT7=
EXTT8=
EXTT9=
EXTT10=
EXTT11=
EXTT12=
EXTT13=
EXTT14=
EXTT15=
EXTT16=
EXTT17=
EXTT18=
PLAYORDER=
